<?xml version="1.0" standalone="no"?><!DOCTYPE svg PUBLIC "-//W3C//DTD SVG 1.1//EN" "http://www.w3.org/Graphics/SVG/1.1/DTD/svg11.dtd"><svg t="1704712209599" class="icon" viewBox="0 0 1024 1024" version="1.1" xmlns="http://www.w3.org/2000/svg" p-id="5198" xmlns:xlink="http://www.w3.org/1999/xlink" width="300" height="300"><path d="M161.408 120.576L512 42.666667l350.592 77.909333a42.666667 42.666667 0 0 1 33.408 41.642667v426.112a256 256 0 0 1-114.005333 212.992L512 981.333333l-269.994667-180.010666A256 256 0 0 1 128 588.373333V162.218667a42.666667 42.666667 0 0 1 33.408-41.642667zM554.666667 405.333333V279.893333a21.333333 21.333333 0 0 0-38.698667-12.373333l-150.528 210.773333a21.333333 21.333333 0 0 0 17.365333 33.706667H448a21.333333 21.333333 0 0 1 21.333333 21.333333v125.44a21.333333 21.333333 0 0 0 38.698667 12.373334l150.528-210.773334a21.333333 21.333333 0 0 0-17.365333-33.706666H576a21.333333 21.333333 0 0 1-21.333333-21.333334z" fill="#14D081" p-id="5199"></path></svg>