<?xml version="1.0" standalone="no"?><!DOCTYPE svg PUBLIC "-//W3C//DTD SVG 1.1//EN" "http://www.w3.org/Graphics/SVG/1.1/DTD/svg11.dtd"><svg t="1705026943876" class="icon" viewBox="0 0 1024 1024" version="1.1" xmlns="http://www.w3.org/2000/svg" p-id="4564" xmlns:xlink="http://www.w3.org/1999/xlink" width="300" height="300"><path d="M793.6 640c-19.2-32-51.2-64-89.6-83.2V128c0-70.4-51.2-128-121.6-128C512 0 460.8 57.6 460.8 128v435.2c-38.4 12.8-64 44.8-89.6 76.8-25.6 38.4-38.4 83.2-38.4 134.4 0 64 25.6 128 70.4 172.8S518.4 1024 582.4 1024c64 0 128-25.6 172.8-70.4s70.4-108.8 70.4-172.8c6.4-51.2-6.4-96-32-140.8z m-211.2 339.2c-115.2 0-204.8-96-204.8-204.8 0-76.8 44.8-147.2 115.2-185.6l12.8-6.4V128c0-44.8 38.4-83.2 83.2-83.2 44.8 0 83.2 38.4 83.2 83.2v460.8l12.8 6.4c70.4 38.4 115.2 108.8 115.2 185.6-6.4 108.8-102.4 198.4-217.6 198.4z" p-id="4565" fill="#59b56e"></path><path d="M620.8 665.6V262.4c0-19.2-19.2-38.4-38.4-38.4s-38.4 19.2-38.4 38.4v403.2c-44.8 12.8-70.4 57.6-70.4 102.4 0 57.6 51.2 108.8 108.8 108.8s108.8-51.2 108.8-108.8c0-44.8-25.6-89.6-70.4-102.4zM352 185.6H153.6c-25.6 0-38.4-12.8-38.4-38.4 0-19.2 12.8-38.4 38.4-38.4h204.8c19.2 0 38.4 19.2 38.4 38.4-6.4 25.6-19.2 38.4-44.8 38.4zM352 307.2h-128c-19.2 0-38.4-19.2-38.4-38.4s19.2-38.4 38.4-38.4h128c19.2 0 38.4 19.2 38.4 38.4 0 25.6-12.8 38.4-38.4 38.4zM352 435.2h-38.4c-19.2 0-38.4-19.2-38.4-38.4s19.2-38.4 38.4-38.4h44.8c19.2 0 38.4 19.2 38.4 38.4-6.4 19.2-19.2 38.4-44.8 38.4z" p-id="4566" fill="#59b56e"></path></svg>